<svg xmlns="http://www.w3.org/2000/svg" width="305.687" height="385.639" viewBox="0 0 305.687 385.639">
  <path id="Shape" d="M184.319,213.96c-7.317,0-14.664-.375-21.748,0-61.748,3.268-107.973,22.4-121.02,69.292-14.513,52.162-4.323,95.6,10.893,121.955.933,1.937,10.288,76.166,7.249,82.876-2.98,26.7-8.165,75.077,54.918,98.388,19.265,7.119,40.912,13.086,79.311,12.959,84.77,0,112.315-40.973,120.608-69.337,4.232-14.473,2.528-25.708,2.528-25.708s-3.8-35.982.981-73.212a187.647,187.647,0,0,1,4.924-26.562c6.339-13.9,11.738-29.235,14.466-44.872,6.21-35.6,1.846-72.212-10.671-94.694-20.671-29.572-52.81-44.954-102.172-49.785C212.483,214.075,198.88,213.96,184.319,213.96Z" transform="translate(-34.542 -213.793)" fill="#ed7161"/>
</svg>
